<svg xmlns="http://www.w3.org/2000/svg" viewBox="0 0 100 100" role="img" aria-label="Pantalla de respirador con curvas"><rect width="100" height="100" fill="#0E141A"/><rect x="8" y="10" width="22" height="10" rx="3" fill="#1A3049"/><text x="19" y="18" font-family="IBM Plex Sans Condensed, Arial, sans-serif" font-size="8" font-weight="700" fill="#B3D5F4" text-anchor="middle">PC</text><path d="M6 46 H14 L17 30 H34 L37 46 H52 L55 30 H72 L75 46 H94" fill="none" stroke="#F1C96E" stroke-width="2.4" stroke-linejoin="round"/><path d="M6 66 L15 54 Q22 63 34 66 L37 76 Q45 68 55 66 L57 54 Q64 63 74 66 L76 76 Q84 68 94 66" fill="none" stroke="#7FB8EC" stroke-width="2.2" stroke-linejoin="round"/><path d="M6 92 Q20 78 34 80 Q42 90 55 92 Q66 78 74 80 Q82 90 94 92" fill="none" stroke="#8FDBAE" stroke-width="2.2"/></svg>
